Simulation
nRows=46
nColumns=15
endheader
time  TH_x TH_y TH_z SC_y  SC_z  SC_x  AC_y  AC_z  AC_x  GH_y  GH_z  GH_yy  EL_x  PS_y
0.0  0.000000  0.000000  0.000000  -22.104461842734374  5.954268846151034  -7.89050899610039  56.670999508506625  8.547857366168186  9.506377543696765  -152.37009826764003  3.547912568001969  -170.58184669627454  20.205997838533218  120.000000
0.04016479400749064  0.000000  0.000000  0.000000  -22.11452762955817  5.959065907678922  -7.885672131552556  56.64035041869469  8.590277565274718  9.487544361885822  -151.0567747817989  3.418691332874286  -171.99822143339725  20.12053857638973  120.000000
0.08032958801498127  0.000000  0.000000  0.000000  -22.1452356157944  5.977003242676025  -7.86795614203601  56.54011397132611  8.718326166518038  9.427181836622939  -146.26465883829056  3.04353094826626  -177.1067612378535  19.871820982285207  120.000000
0.12049438202247191  0.000000  0.000000  0.000000  -22.20406376996155  6.014016580691523  -7.8400598160422454  56.357903766789356  8.922525727585123  9.323492060015285  -134.99008928511094  2.4959876082066668  171.07630647295025  19.483684022074076  120.000000
0.16065917602996255  0.000000  0.000000  0.000000  -22.303569563558586  6.0695635973627775  -7.814540143104104  56.08873565176635  9.182548267167999  9.179244408542779  -110.69024534582681  2.019756839418146  146.00378539237298  18.986940865996544  120.000000
0.20082397003745317  0.000000  0.000000  0.000000  -22.460703719949056  6.1402299077253355  -7.80340954690793  55.73372365679564  9.478838741215608  8.999078915124706  -73.93864822075629  2.155136362259629  108.25331072198225  18.410594083455372  120.000000
0.24098876404494382  0.000000  0.000000  0.000000  -22.693773477975533  6.222298022422036  -7.813312263147047  55.30051911281315  9.794306374084151  8.792473341180088  -47.23114357274876  3.1492677387040384  80.33421318286261  17.781067656514043  120.000000
0.28115355805243447  0.000000  0.000000  0.000000  -23.017764099141285  6.3120795063381685  -7.84120023224131  54.80421594507295  10.11794621214171  8.568899410774149  -33.835752679398745  4.6816455068622655  65.5355737108337  17.121623581709567  120.000000
0.3213183520599251  0.000000  0.000000  0.000000  -23.443266713494953  6.411078590214892  -7.875936829252075  54.26522505644518  10.446054948138391  8.335920567473206  -26.830248608950356  6.529634767336128  56.95980148170235  16.452349561560315  120.000000
0.3614831460674157  0.000000  0.000000  0.000000  -23.971375409023697  6.522675347408111  -7.904074568162602  53.70287476970197  10.780791199120701  8.100133735219542  -22.772014845750192  8.60363379001179  51.192517277475964  15.788101277222781  120.000000
0.40164794007490634  0.000000  0.000000  0.000000  -24.598416185042446  6.6503144222927135  -7.908980773203497  53.133853594672736  11.123376961951475  7.864725459283291  -20.248070143047677  10.858349642634026  46.85029101393915  15.139644994809265  120.000000
0.441812734082397  0.000000  0.000000  0.000000  -25.316165420453984  6.797610583547428  -7.870265532036681  52.57287458626955  11.471284769199148  7.629591278327425  -18.622855478398723  13.262159506877403  43.32834415545006  14.514941006524033  120.000000
0.48197752808988764  0.000000  0.000000  0.000000  -26.11225091960216  6.966700628384965  -7.769331105913456  52.03257332410024  11.821647394309663  7.394997665124539  -17.571816340394246  15.787361986943202  40.33271280268029  13.9195281751095  120.000000
0.5221423220973783  0.000000  0.000000  0.000000  -26.972287270106232  7.158279210662374  -7.5928727352023975  51.52420366486522  12.171984378868801  7.163905755244379  -16.904578290976083  18.40732769075229  37.70304633824277  13.357320047902746  120.000000
0.5623071161048689  0.000000  0.000000  0.000000  -27.88006029594737  7.371501184394162  -7.33346141636595  51.05812822053033  12.519475935022236  6.940920563075773  -16.49610012311065  21.09582447327535  35.34254473349964  12.830639022754998  120.000000
0.6024719101123596  0.000000  0.000000  0.000000  -28.819777157512338  7.604234830059746  -6.986861149176136  50.644118053757026  12.858543857994913  6.7300061219174285  -16.25611772811304  23.827641450092216  33.18643482593117  12.340036124512373  120.000000
0.6426367041198502  0.000000  0.000000  0.000000  -29.7770121019219  7.853705666908218  -6.551466889518693  50.29053002115551  13.181233998755488  6.533879128430417  -16.11679306801228  26.57874694661629  31.18830482742219  11.884106332646489  120.000000
0.6828014981273408  0.000000  0.000000  0.000000  -30.739808791921508  8.11676523039139  -6.028392768011403  50.003548431374874  13.478937778983356  6.35418364354167  -16.02579679986738  29.32694488809204  29.31222167055984  11.459139644029515  120.000000
0.7229662921348314  0.000000  0.000000  0.000000  -31.698716699328774  8.390600561703769  -5.421173149827806  49.78660652007367  13.744205269658902  6.191968413597212  -15.94265140418257  32.05227058111971  27.528455682293522  11.059194937907716  120.000000
0.7631310861423221  0.000000  0.000000  0.000000  -32.646130308103025  8.673166988786283  -4.7357485470267475  49.640342108456885  13.972569018575177  6.048235527318946  -15.836416834111736  34.73757827071069  25.81130968070494  10.676652738102922  120.000000
0.8032958801498127  0.000000  0.000000  0.000000  -33.57544460013927  8.963177665971733  -3.97916513635445  49.56272302748383  14.162332756785956  5.923640927022999  -15.684633442134205  37.368549594223836  24.138864455288118  10.303196308764402  120.000000
0.8434606741573034  0.000000  0.000000  0.000000  -34.4800976040587  9.259048212282424  -3.158601280071833  49.54890196247212  14.313956405005856  5.818423350502707  -15.473449936983222  39.933439771562995  22.494336077513385  9.931363569203807  120.000000
0.883625468164794  0.000000  0.000000  0.000000  -35.35309381391395  9.558987472951559  -2.281992519285269  49.59131945016142  14.429491188980563  5.732617161177872  -15.198373703228645  42.422314218365244  20.868194512647182  9.55584479615436  120.000000
0.9237902621722847  0.000000  0.000000  0.000000  -36.18712272259483  9.861198853366256  -1.3592504648489885  49.67960284329014  14.511755882545135  5.66551420979592  -14.864126030464822  44.82597106723779  19.259371638196395  9.174723370981846  120.000000
0.9639550561797753  0.000000  0.000000  0.000000  -36.974639165347654  10.163200041765593  -0.4028222735931492  49.80063158604201  14.563345894714649  5.615284553610454  -14.483235490584137  47.13484277466353  17.675163932014197  8.790300561872533  120.000000
1.004119850187266  0.000000  0.000000  0.000000  -37.70809793598316  10.462223587591913  0.5725379596269268  49.93979781293074  14.586236766248957  5.578988436692978  -14.073247525633402  49.33852510697433  16.12958191380296  8.409072881847385  120.000000
1.0442846441947566  0.000000  0.000000  0.000000  -38.381056954148484  10.755878291405113  1.5506496524156173  50.0825708117155  14.5820103227144  5.552508954409069  -13.653546005191458  51.42674437559245  14.640993940403266  8.040958822834634  120.000000
1.0844494382022472  0.000000  0.000000  0.000000  -38.989384443815275  11.042038422639123  2.5146602211395077  50.21585845164081  14.551463290669693  5.530982926835208  -13.24270796960408  53.39010978664805  13.229722737615727  7.697866033702665  120.000000
1.1246142322097379  0.000000  0.000000  0.000000  -39.531899523588855  11.318104452118975  3.447702882945802  50.32944435686351  14.49430710858667  5.508969165430958  -12.857104558447107  55.219838340431714  11.916293669128363  7.3920655904552115  120.000000
1.1647790262172284  0.000000  0.000000  0.000000  -40.01032300925825  11.580906787838353  4.333410271157325  50.4170909900892  14.409186233201012  5.480212258986814  -12.50999687708048  56.907672384354704  10.719675211314373  7.1345517483297805  120.000000
1.2049438202247191  0.000000  0.000000  0.000000  -40.42884391716835  11.826925437141135  5.157119576064852  50.476989128708965  14.294152127647635  5.437968273858098  -12.210839417022624  58.44611988862063  9.655830027860802  6.933842332394218  120.000000
1.2451086142322096  0.000000  0.000000  0.000000  -40.79284245283315  12.052560515372326  5.906787151944109  50.511135830172954  14.14738071540334  5.375967873328555  -11.964498472896743  59.82931298834893  8.736125452266096  6.7951554329244575  120.000000
1.2852734082397004  0.000000  0.000000  0.000000  -41.107562292870924  12.254620310978337  6.573884412833281  50.523792279251616  13.968266825948762  5.289640497799423  -11.771614907303748  61.053702816595816  7.966804535694007  6.719801774469365  120.000000
1.325438202247191  0.000000  0.000000  0.000000  -41.37758965880091  12.430666703272935  7.154211719722801  50.520144220347234  13.758564661624854  5.176671872161372  -11.629594586228  62.11872099338104  7.348536972843214  6.704504350257381  120.000000
1.3656029962546816  0.000000  0.000000  0.000000  -41.606793671298014  12.579256011893985  7.648422841948862  50.504935516725745  13.523091144239647  5.037490365384974  -11.533644042243743  63.027115939044535  6.876455965140996  6.740915562797013  120.000000
1.4057677902621724  0.000000  0.000000  0.000000  -41.79842076516884  12.699905286053287  8.061964131419316  50.48180757151432  13.26993783421502  4.875075454317357  -11.477783189278822  63.78472222508475  6.540323214825934  6.815707519258321  120.000000
1.4459325842696629  0.000000  0.000000  0.000000  -41.95527695272446  12.792993241889837  8.40430444600672  50.45303123427214  13.009958774035322  4.694451620925038  -11.455437134773184  64.39969400313633  6.325350963621977  6.911585469205786  120.000000
1.4860973782771536  0.000000  0.000000  0.000000  -42.07974682559774  12.859597530883686  8.68751173146886  50.41973935394187  12.755696918064002  4.5017996297842755  -11.459878513574715  64.88113028280334  6.21337801032249  7.009381366537392  120.000000
1.5262621722846441  0.000000  0.000000  0.000000  -42.17368638348762  12.901225984004103  8.924362554354605  50.38233034971741  12.519808548746319  4.3035544945363835  -11.48424853212911  65.23743341743054  6.184454928881561  7.090788674639769  120.000000
1.5664269662921348  0.000000  0.000000  0.000000  -42.23808501858946  12.9195079717719  9.126366664309321  50.341021170951656  12.313429949997674  4.105575815529162  -11.521581305258994  65.4743525762661  6.218367182660465  7.141322176545226  120.000000
1.6065917602996254  0.000000  0.000000  0.000000  -42.272620227030295  12.915819677598686  9.30197875294602  50.29627569383537  12.144695499375072  3.912558740450808  -11.564725141266536  65.59322909310754  6.296072630747796  7.152865536829111  120.000000
1.646756554307116  0.000000  0.000000  0.000000  -42.27516785524762  12.89095974572382  9.45535534601139  50.24916996364673  12.017805939160116  3.727734401200772  -11.606466087948625  65.58945350150115  6.40061412469579  7.125213298100715  120.000000
1.6869213483146068  0.000000  0.000000  0.000000  -42.24134699425728  12.844881218839541  9.585746509655413  50.20154449937158  11.932695452402333  3.552824241763522  -11.63974622949243  65.45149535594818  6.51757820749426  7.06614203361747  120.000000
1.7270861423220973  0.000000  0.000000  0.000000  -42.16433725001372  12.776583176662786  9.68745611173201  50.15613695290605  11.885271590010447  3.388169060218536  -11.658054381465439  65.16055380834707  6.635049967284347  6.990247755208656  120.000000
1.767250936329588  0.000000  0.000000  0.000000  -42.03503016481509  12.684168301373829  9.750268776481558  50.11645412800459  11.867941783409789  3.2329610279289693  -11.655807363013182  64.6909584716686  6.743570669380671  6.917098206790467  120.000000
1.8074157303370786  0.000000  0.000000  0.000000  -41.84270729268968  12.56503031796534  9.760121138022575  50.08666506513804  11.870260942831958  3.085519682439318  -11.628683397129937  64.0114466194479  6.836171548458975  6.869035993078545  120.000000
